<svg width="512" height="512" viewBox="0 0 512 512" fill="none" xmlns="http://www.w3.org/2000/svg">
<path d="M497.65 70.0396C485.51 67.516 474.058 66.377 463.269 66.377C441.452 66.377 422.362 71.0356 405.848 78.307C405.894 78.693 405.965 79.0681 406.002 79.4595C408.801 106.321 398.809 133.639 376.377 161.026C383.926 167.383 390.982 174.23 397.535 181.488C398.024 181.494 398.523 181.51 399.009 181.51C496.611 181.51 497.65 70.0396 497.65 70.0396Z" fill="#091D35"/>
<path d="M369.401 155.396C447.88 59.6421 336.671 0 336.671 0C301.308 43.0399 299.216 86.8815 306.981 121.327C329.832 129.498 350.89 141.055 369.401 155.396Z" fill="#091D35"/>
<path d="M227.8 116.668C110.273 116.668 15 205.166 15 314.334C15 423.502 110.273 512.001 227.8 512.001C345.327 512.001 440.6 423.502 440.6 314.334C440.603 205.166 345.327 116.668 227.8 116.668ZM53.4028 362.095C49.0843 331.363 84.8204 321.468 138.395 313.938C162.568 310.542 190.366 307.627 219.768 303.495C249.163 299.365 276.697 294.504 300.865 291.106C354.447 283.575 391.52 283.238 395.838 313.973C402.105 358.57 330.528 405.497 235.968 418.787C141.407 432.075 59.6702 406.692 53.4028 362.095Z" fill="#091D35"/>
<path d="M153.734 387.866C169.351 385.672 180.725 372.581 181.318 357.361L120.119 342.67C117.628 348.071 116.583 354.217 117.474 360.546C119.944 378.101 136.176 390.333 153.734 387.866Z" fill="#091D35"/>
<path d="M293.079 368.276C310.636 365.809 322.869 349.574 320.399 332.016C319.508 325.687 316.812 320.07 312.928 315.562L258.152 346.559C262.919 361.024 277.462 370.47 293.079 368.276Z" fill="#091D35"/>
</svg>
